<?xml version="1.0" encoding="UTF-8"?>
<svg viewBox="0 0 260 260" xmlns="http://www.w3.org/2000/svg" xmlns:svgjs="http://svgjs.dev/svgjs" version="1.1" >
  <defs>
    <style>
      .st0 {
        fill: #0815ca;
      }

      .st1 {
        fill: #fff;
      }
    </style>
  </defs>
  <path class="st0" d="M225.3,0H34.7C15.6,0,0,15.6,0,34.7v190.6c0,19.1,15.6,34.7,34.7,34.7h190.6c19.1,0,34.7-15.6,34.7-34.7V34.7C260,15.6,244.4,0,225.3,0ZM213.4,153.5c-22.3,0-43-6.8-60.1-18.5v78.3h-46.6v-59.9h-59.9v-46.6h78.3c-11.6-17.1-18.4-37.7-18.4-59.9h46.6c0,33,26.7,59.9,59.9,59.9h.2v46.8Z"/>
  <path class="st1" d="M153.3,46.8h-46.6c0,22.2,6.8,42.8,18.4,59.9H46.8v46.6h59.9v59.9h46.6v-78.3c17.1,11.7,37.8,18.5,60.1,18.5v-46.8h-.2c-33.2,0-59.9-26.9-59.9-59.9Z"/>
</svg>