<?xml version="1.0" encoding="UTF-8"?>
<svg id="Layer_2" data-name="Layer 2" xmlns="http://www.w3.org/2000/svg" viewBox="0 0 719.14 165.69">
  <defs>
    <style>
      .cls-1 {
        fill: #d59629;
      }

      .cls-2 {
        fill: #fff;
      }
    </style>
  </defs>
  <g id="Layer_1-2" data-name="Layer 1">
    <g>
      <g>
        <path class="cls-2" d="M13.05,165.69c-3.58,0-6.65-1.28-9.21-3.84-2.56-2.56-3.84-5.63-3.84-9.21V50.29c0-3.58,1.28-6.65,3.84-9.21,2.56-2.56,5.63-3.84,9.21-3.84s6.65,1.28,9.21,3.84c2.56,2.56,3.84,5.63,3.84,9.21v102.35c0,3.58-1.28,6.65-3.84,9.21-2.56,2.56-5.63,3.84-9.21,3.84Z"/>
        <path class="cls-2" d="M116.42,37.75c17.99,1.02,32.79,7.34,44.39,18.93,12.28,12.28,18.51,27.12,18.68,44.52v49.38c0,4.95-1.28,8.7-3.84,11.26-2.56,2.56-5.63,3.84-9.21,3.84s-6.65-1.28-9.21-3.84c-2.56-2.56-3.84-6.22-3.84-11v-49.38c0-.77.04-1.53.13-2.3-.51-9.38-4.18-17.44-11-24.18-7.42-7.42-16.38-11.13-26.87-11.13h-.51c-10.49,0-19.45,3.71-26.87,11.13-6.82,6.74-10.49,14.8-11,24.18.08.77.13,1.53.13,2.3v49.38c0,4.78-1.28,8.44-3.84,11-2.56,2.56-5.63,3.84-9.21,3.84s-6.65-1.28-9.21-3.84c-2.56-2.56-3.84-6.31-3.84-11.26v-49.38c.17-17.4,6.4-32.24,18.68-44.52,11.6-11.6,26.4-17.91,44.39-18.93h2.05Z"/>
        <path class="cls-2" d="M372.94,37.75c3.58,0,6.61,1.24,9.08,3.71,2.47,2.48,3.71,5.5,3.71,9.08s-1.24,6.51-3.71,9.02c-2.47,2.52-5.5,3.77-9.08,3.77-1.79,0-3.31.62-4.54,1.86s-1.85,2.75-1.85,4.54.62,3.31,1.85,4.54c1.24,1.24,2.75,1.86,4.54,1.86,12.37,0,22.92,4.37,31.67,13.11,8.74,8.74,13.11,19.3,13.11,31.67s-4.37,22.92-13.11,31.66c-8.74,8.74-19.3,13.11-31.67,13.11s-22.92-4.37-31.66-13.11c-8.74-8.74-13.11-19.3-13.11-31.66,0-3.58,1.26-6.61,3.77-9.08,2.52-2.47,5.52-3.71,9.02-3.71s6.61,1.24,9.08,3.71c2.47,2.47,3.71,5.5,3.71,9.08,0,5.29,1.87,9.81,5.63,13.56,3.75,3.75,8.27,5.63,13.56,5.63s9.81-1.87,13.56-5.63c3.75-3.75,5.63-8.27,5.63-13.56s-1.88-9.81-5.63-13.56c-3.75-3.75-8.27-5.63-13.56-5.63-8.87,0-16.42-3.13-22.64-9.4-6.23-6.27-9.34-13.79-9.34-22.58s3.11-16.42,9.34-22.64c6.23-6.23,13.77-9.34,22.64-9.34Z"/>
        <path class="cls-2" d="M490.26,157.37c-.6,1.71-1.58,3.2-2.94,4.48-2.47,2.56-5.5,3.84-9.08,3.84s-6.48-1.28-8.96-3.84c-1.36-1.28-2.35-2.73-2.94-4.35l-49.77-99.66c-1.53-2.13-2.3-4.56-2.3-7.29,0-3.5,1.26-6.5,3.77-9.02,2.52-2.52,5.52-3.77,9.02-3.77s6.61,1.24,9.08,3.71c.85.85,1.54,1.75,2.05,2.69h.13l39.92,79.96,39.92-79.96.13.13c.6-1.02,1.32-1.96,2.18-2.81,2.47-2.47,5.46-3.71,8.96-3.71s6.61,1.26,9.08,3.77c2.47,2.52,3.71,5.52,3.71,9.02,0,2.82-.81,5.29-2.43,7.42l-49.51,99.41Z"/>
        <path class="cls-2" d="M265.07,157.12c-.6,1.71-1.58,3.2-2.94,4.48-2.47,2.56-5.5,3.84-9.08,3.84s-6.48-1.28-8.96-3.84c-1.36-1.28-2.35-2.73-2.94-4.35l-49.77-99.66c-1.53-2.13-2.3-4.56-2.3-7.29,0-3.5,1.26-6.5,3.77-9.02,2.52-2.52,5.52-3.77,9.02-3.77s6.61,1.24,9.08,3.71c.85.85,1.54,1.75,2.05,2.69h.13l39.92,79.96,39.92-79.96.13.13c.6-1.02,1.32-1.96,2.18-2.81,2.47-2.47,5.46-3.71,8.96-3.71s6.61,1.26,9.08,3.77c2.47,2.52,3.71,5.52,3.71,9.02,0,2.82-.81,5.29-2.43,7.42l-49.51,99.41Z"/>
        <path class="cls-2" d="M632.01,67.05c-4.69-2.13-9.85-3.2-15.48-3.2-10.49,0-19.45,3.69-26.87,11.07-7.42,7.38-11.13,16.31-11.13,26.8s3.71,19.45,11.13,26.87,16.38,11.13,26.87,11.13,19.32-3.67,26.74-11c.08-.08.17-.17.26-.26,2.47-2.47,5.5-3.71,9.08-3.71s6.65,1.26,9.21,3.77c2.56,2.52,3.84,5.57,3.84,9.15s-1.28,6.65-3.84,9.21c-.09.09-.17.17-.26.26-12.37,12.37-27.38,18.55-45.03,18.55s-32.71-6.23-45.16-18.68c-12.45-12.45-18.68-27.51-18.68-45.16s6.23-32.71,18.68-45.16c12.45-12.45,27.51-18.68,45.16-18.68s32.67,6.19,45.03,18.55l-.13.13c0,.09.04.13.13.13,2.47,2.48,3.71,5.5,3.71,9.08s-1.24,6.48-3.71,8.96l-36.59,36.33c-2.56,2.48-5.63,3.71-9.21,3.71s-6.78-1.24-9.34-3.71c-2.47-2.56-3.71-5.67-3.71-9.34s1.24-6.65,3.71-9.21l25.59-25.59Z"/>
        <path class="cls-2" d="M715.3,3.97c2.56,2.56,3.84,5.63,3.84,9.21v139.45c0,3.58-1.28,6.65-3.84,9.21-2.56,2.56-5.63,3.84-9.21,3.84s-6.65-1.28-9.21-3.84c-2.56-2.56-3.84-5.63-3.84-9.21V13.18c0-3.58,1.28-6.65,3.84-9.21,2.56-2.56,5.63-3.84,9.21-3.84s6.65,1.28,9.21,3.84Z"/>
      </g>
      <path class="cls-1" d="M320.99,26.1c-3.58,0-6.65-1.28-9.21-3.84-2.56-2.56-3.84-5.63-3.84-9.21s1.28-6.65,3.84-9.21c2.56-2.56,5.63-3.84,9.21-3.84s6.65,1.28,9.21,3.84c2.56,2.56,3.84,5.63,3.84,9.21s-1.28,6.65-3.84,9.21c-2.56,2.56-5.63,3.84-9.21,3.84Z"/>
      <path class="cls-1" d="M413.57,26.1c-3.58,0-6.65-1.28-9.21-3.84-2.56-2.56-3.84-5.63-3.84-9.21s1.28-6.65,3.84-9.21c2.56-2.56,5.63-3.84,9.21-3.84s6.65,1.28,9.21,3.84c2.56,2.56,3.84,5.63,3.84,9.21s-1.28,6.65-3.84,9.21c-2.56,2.56-5.63,3.84-9.21,3.84Z"/>
      <path class="cls-1" d="M13.05,26.1c-3.58,0-6.65-1.28-9.21-3.84-2.56-2.56-3.84-5.63-3.84-9.21S1.28,6.4,3.84,3.84C6.4,1.28,9.47,0,13.05,0s6.65,1.28,9.21,3.84c2.56,2.56,3.84,5.63,3.84,9.21s-1.28,6.65-3.84,9.21c-2.56,2.56-5.63,3.84-9.21,3.84Z"/>
    </g>
  </g>
</svg>