<svg width="587" height="587" viewBox="0 0 587 587" fill="none" xmlns="http://www.w3.org/2000/svg">
<path d="M0 289.163C0 152.85 0 84.6941 42.3467 42.347C84.6934 0 152.849 0 289.16 0H297.837C434.149 0 502.305 0 544.651 42.347C586.997 84.6941 586.997 152.85 586.997 289.163V297.839C586.997 434.152 586.997 502.308 544.651 544.655C502.305 587.002 434.149 587.002 297.837 587.002H289.16C152.849 587.002 84.6934 587.002 42.3467 544.655C0 502.308 0 434.152 0 297.839V289.163Z" fill="#003BAE"/>
<path fill-rule="evenodd" clip-rule="evenodd" d="M324.958 153.129H267.039C239.052 153.129 216.362 173.424 216.362 198.46V237.315C216.362 262.349 239.052 282.645 267.039 282.645H324.958C352.947 282.645 375.635 262.349 375.635 237.315V198.46C375.635 173.424 352.947 153.129 324.958 153.129ZM267.039 94.8477C203.066 94.8477 151.205 141.237 151.205 198.46V237.315C151.205 294.538 203.066 340.927 267.039 340.927H324.958C388.931 340.927 440.792 294.538 440.792 237.315V198.46C440.792 141.237 388.931 94.8477 324.958 94.8477H267.039Z" fill="white"/>
<path d="M545.826 545.832C587 504.658 587 438.358 587 305.758C587 259.592 549.568 222.216 503.459 222.216H83.6003C37.4345 222.216 0.0595703 259.647 0.0595703 305.758C0.0595703 438.358 0.0595397 504.658 41.2344 545.832C82.4093 587.007 148.709 587.007 281.308 587.007H305.751C438.35 587.007 504.65 587.007 545.826 545.832Z" fill="#029AEB"/>
<path fill-rule="evenodd" clip-rule="evenodd" d="M79.9865 365.827C87.3284 350.564 105.378 344.278 120.301 351.787L135.193 359.28C235.785 409.895 353.65 409.895 454.242 359.28L469.134 351.787C484.058 344.278 502.107 350.564 509.449 365.826C516.791 381.089 510.645 399.549 495.722 407.058L480.83 414.552C363.472 473.602 225.963 473.602 108.606 414.552L93.7137 407.058C78.7905 399.549 72.6446 381.089 79.9865 365.827Z" fill="white"/>
</svg>