<svg xmlns="http://www.w3.org/2000/svg" xmlns:xlink="http://www.w3.org/1999/xlink" width="32" height="32" viewBox="0 0 32 32"><defs><linearGradient xlink:href="#a" id="d" x2="0" y1="545.798" y2="517.798" gradientTransform="matrix(8.71458 0 0 9.23253 -3261.094 -4952.587)" gradientUnits="userSpaceOnUse"/><linearGradient id="a"><stop style="stop-color:#2a2c2f"/><stop offset="1" style="stop-color:#424649"/></linearGradient><linearGradient xlink:href="#b" id="e" x1="393.571" x2="407.571" y1="524.798" y2="538.798" gradientTransform="matrix(8.71458 0 0 9.23253 -3261.094 -4952.587)" gradientUnits="userSpaceOnUse"/><linearGradient id="b"><stop style="stop-color:#292c2f"/><stop offset="1" style="stop-opacity:0"/></linearGradient><linearGradient xlink:href="#c" id="f" x2="0" y1="543.798" y2="518.798" gradientTransform="matrix(7.95678 0 0 8.8311 -2954.89 -4734.694)" gradientUnits="userSpaceOnUse"/><linearGradient id="c"><stop style="stop-color:#c6cdd1"/><stop offset="1" style="stop-color:#e0e5e7"/></linearGradient><radialGradient id="g" cx="49" cy="34.526" r="49" gradientTransform="matrix(.27205 .09927 -.08841 .2423 390.266 518.424)" gradientUnits="userSpaceOnUse"><stop offset="0" stop-color="#f2f2f2"/><stop offset="1" stop-color="#f2f2f2" stop-opacity="0"/></radialGradient></defs><g transform="translate(-10.496 20.93)scale(.11534)"><rect width="139.433" height="258.511" x="160" y="-172" ry="7.386" style="fill:url(#d);stroke-width:8.96982"/><path d="M290.718-144.302 168.714 58.814l26.144 27.697h104.575v-221.58Z" style="opacity:.2;fill:url(#e);fill-rule:evenodd;stroke-width:8.96982"/><path d="M168.714-144.302h122.004V58.814H168.714z" style="fill:url(#f);stroke-width:8.96982"/><rect width="52.287" height="9.233" x="203.573" y="-162.767" ry="3.735" style="fill:#212324;stroke-width:8.96982"/><path fill="url(#g)" d="M200.083-75.836c-.187.027-.388.073-.528.211l-6.491 6.491a.83.83 0 0 0-.108 1.023l7.585 12.524a32.3 32.3 0 0 0-3.21 7.267l-13.936 2.893a.87.87 0 0 0-.67.847v9.172c0 .388.294.72.67.812l13.512 3.28a32.7 32.7 0 0 0 3.316 8.432l-7.832 11.925a.84.84 0 0 0 .108 1.058l6.492 6.491a.83.83 0 0 0 1.022.108l12.277-7.443a32.5 32.5 0 0 0 7.762 3.245l2.857 13.76c.083.388.415.67.812.67h9.172a.83.83 0 0 0 .812-.636l3.387-13.83a32.3 32.3 0 0 0 7.973-3.35l12.1 7.937a.846.846 0 0 0 1.06-.108l6.455-6.491a.83.83 0 0 0 .142-1.023l-4.41-7.267-1.447.459a.54.54 0 0 1-.565-.213s-2.786-4.097-6.42-9.42c-4.348 8.508-13.214 14.324-23.426 14.324-14.51 0-26.283-11.772-26.283-26.283 0-10.673 6.383-19.84 15.523-23.954V-69.7a32.3 32.3 0 0 0-4.798 2.117c-.003-.002.003-.037 0-.037l-12.383-8.114c-.166-.108-.342-.126-.528-.108zm37.431-16.582-16.51 1.588v68.018l16.334-2.47v-29l21.979 32.175 17.216-5.468-22.508-30.94 22.684-29.175-17.569-4.022-21.802 29.176z" style="fill:#333;stroke-width:.959011"/></g></svg>