<?xml version="1.0" encoding="utf-8"?>
<!-- Generator: Adobe Illustrator 26.5.0, SVG Export Plug-In . SVG Version: 6.00 Build 0)  -->
<svg version="1.0" id="Badges" xmlns="http://www.w3.org/2000/svg" xmlns:xlink="http://www.w3.org/1999/xlink" x="0px" y="0px"
	 viewBox="0 0 678 471" style="enable-background:new 0 0 678 471;" xml:space="preserve">
<style type="text/css">
	.st0{fill:#76B900;}
	.st1{fill:#1E1E1E;}
	.st2{fill:#FFFFFF;}
</style>
<g id="GeForce_RTX_Studio">
	<path class="st0" d="M257.5,149.4v170.2H56.4V149.4H257.5z M602.9,149.4v170.2h17.8V149.4H602.9z"/>
	<rect x="257.5" y="149.4" class="st1" width="345.4" height="170.2"/>
	<path id="NVIDIA_Logo" class="st1" d="M145.5,261.8v25.6h7.2v-25.6H145.5L145.5,261.8z M88.6,261.8v25.6h7.3v-19.5h5.6
		c1.9,0,3.2,0.5,4.1,1.4c1.1,1.2,1.6,3.2,1.6,6.8v11.2h7.1v-14.2c0-10.1-6.4-11.5-12.7-11.5L88.6,261.8 M157.1,261.8v25.6h11.7
		c6.2,0,8.3-1,10.5-3.4c1.6-1.6,2.6-5.2,2.6-9.1c0-3.6-0.9-6.8-2.3-8.8c-2.7-3.6-6.5-4.3-12.3-4.3H157.1L157.1,261.8z M164.3,267.4
		h3.1c4.5,0,7.4,2,7.4,7.3c0,5.3-2.9,7.3-7.4,7.3h-3.1V267.4L164.3,267.4z M135,261.8l-6,20.3l-5.8-20.3h-7.8l8.3,25.6h10.4
		l8.3-25.6C142.4,261.8,135,261.8,135,261.8z M185.2,287.4h7.2v-25.6h-7.2V287.4z M205.5,261.8l-10.1,25.6h7.1l1.6-4.5H216l1.5,4.5
		h7.7L215,261.8H205.5L205.5,261.8z M210.2,266.5l4.4,12h-8.9L210.2,266.5L210.2,266.5z M135.9,201.9v-6.1c0.6,0,1.2-0.1,1.8-0.1
		c16.8-0.5,27.8,14.4,27.8,14.4s-11.9,16.5-24.6,16.5c-1.8,0-3.5-0.3-5-0.8v-18.6c6.5,0.8,7.9,3.7,11.8,10.2l8.7-7.4
		c0,0-6.4-8.4-17.2-8.4C138.1,201.7,137,201.8,135.9,201.9 M135.9,181.6v9.2c0.6,0,1.2-0.1,1.8-0.1c23.4-0.8,38.6,19.2,38.6,19.2
		s-17.5,21.3-35.7,21.3c-1.7,0-3.2-0.2-4.7-0.4v5.7c1.3,0.2,2.6,0.3,3.9,0.3c17,0,29.2-8.7,41.1-18.9c2,1.6,10,5.4,11.7,7.1
		c-11.3,9.5-37.6,17.1-52.5,17.1c-1.4,0-2.8-0.1-4.2-0.2v8h64.5v-68L135.9,181.6L135.9,181.6z M135.9,225.8v4.8
		c-15.7-2.8-20-19.1-20-19.1s7.5-8.3,20-9.7v5.3l0,0c-6.6-0.8-11.7,5.3-11.7,5.3S127.1,222.9,135.9,225.8 M108,210.9
		c0,0,9.3-13.7,27.9-15.1v-5c-20.6,1.6-38.4,19.1-38.4,19.1s10.1,29.1,38.4,31.8v-5.3C115.1,233.8,108,210.9,108,210.9z"/>
	<polygon class="st2" points="382.3,227 382.3,209.7 397.5,209.7 398.6,201.8 382.3,201.8 382.3,190.4 402.6,190.4 402.6,182.5 
		373,182.5 373,227 	"/>
	<path class="st2" d="M308.9,227.9h0.5c3.4,0,6.6-0.4,9.6-1.3c3-0.9,5.5-2.2,7.7-3.9v-20.5h-17.4l-1.1,7.8h9.5v8.2
		c-1.1,0.5-2.4,0.9-3.9,1.1c-1.5,0.3-3.1,0.4-4.7,0.4h-0.4c-4.1,0-7.1-1.1-9-3.2c-1.7-2.1-2.7-5.5-2.7-10.1v-2.9
		c0-4.5,1-7.9,2.9-10.3c1.9-2.4,4.7-3.5,8.4-3.5h0.4c4.7,0,7.6,1.8,8.8,5.5l8.5-3c-1.3-3.4-3.4-6.1-6.4-7.9s-6.6-2.8-10.9-2.8h-0.6
		c-4.3,0-8,0.9-11,2.6c-3.1,1.8-5.4,4.3-7,7.6s-2.5,7.2-2.5,11.9v2.5C287.7,220.7,294.8,227.9,308.9,227.9z"/>
	<polygon class="st2" points="570.7,227 570.7,219.2 550,219.2 550,208.5 565.4,208.5 566.5,200.6 550,200.6 550,190.4 570.3,190.4 
		570.3,182.5 540.7,182.5 540.7,227 	"/>
	<path class="st2" d="M464.8,227v-15.9h6.9l8.8,15.9h10.1l-9.7-17.3c2.6-1.1,4.7-2.6,6.1-4.7c1.5-2.1,2.2-4.6,2.2-7.6v-1.2
		c0-4.3-1.5-7.6-4.6-10.1c-3-2.4-7.1-3.6-12.3-3.6h-16.9v44.6h9.4V227z M472.1,190.5c2.2,0,4.1,0.4,5.6,1.3s2.2,2.3,2.2,4.2v1.6
		c0,2-0.7,3.4-2.2,4.3c-1.5,0.8-3.4,1.3-5.6,1.3h-7.3v-12.6h7.3V190.5z"/>
	<path class="st2" d="M321.2,265.4c1.5-2.1,2.2-4.6,2.2-7.6v-1.2c0-4.3-1.5-7.6-4.6-10.1c-3-2.4-7.1-3.6-12.3-3.6h-16.9v44.6h9.3
		v-15.9h6.9l8.8,15.9h10.1l-9.7-17.3C317.7,269,319.8,267.5,321.2,265.4z M314.1,257.9c0,2-0.7,3.4-2.2,4.3
		c-1.5,0.8-3.4,1.3-5.6,1.3H299v-12.6h7.3c2.2,0,4.1,0.4,5.6,1.3c1.5,0.9,2.2,2.3,2.2,4.2V257.9z"/>
	<path class="st2" d="M515.6,227.9h0.5c4.5,0,8.3-1,11.4-2.9c3.1-2,5.2-4.7,6.5-8.2l-8.5-3.3c-0.7,2.2-1.8,3.8-3.5,4.8
		s-3.6,1.5-5.9,1.5h-0.4c-3.6,0-6.4-1.1-8.2-3.3c-1.9-2.2-2.8-5.6-2.8-10.3v-2.9c0-4.5,1-7.9,2.9-10.2c2-2.2,4.7-3.4,8.1-3.4h0.4
		c2.2,0,4.2,0.5,5.8,1.5s2.7,2.6,3.3,4.8l8.7-3.1c-1.2-3.6-3.4-6.5-6.4-8.5s-6.8-3-11.3-3h-0.5c-4.3,0-8,0.9-11,2.7
		c-3,1.8-5.3,4.3-6.9,7.6s-2.4,7.2-2.4,11.7v2.6c0,6.9,1.7,12.3,5.2,16.2C504,226,509,227.9,515.6,227.9z"/>
	<polygon class="st2" points="407.1,242.8 396.3,242.8 386.7,257.5 377.1,242.8 366.1,242.8 380.9,264.8 365.6,287.4 376.3,287.4 
		386.5,271.9 396.6,287.4 407.6,287.4 392.3,264.8 	"/>
	<path class="st2" d="M446,217.7c1.6-3.3,2.5-7.2,2.5-11.6v-2.5c0-4.5-0.8-8.4-2.5-11.7c-1.6-3.3-4-5.8-7.1-7.6s-6.8-2.7-11.1-2.7
		h-0.6c-4.3,0-8,0.9-11.1,2.7s-5.4,4.3-7.1,7.6c-1.6,3.3-2.5,7.2-2.5,11.7v2.4c0,4.5,0.8,8.4,2.5,11.6c1.6,3.3,4,5.8,7.1,7.6
		c3.1,1.8,6.8,2.7,11.1,2.7h0.6c4.3,0,8-0.9,11.1-2.7C442,223.5,444.4,221,446,217.7z M427.8,219.8h-0.5c-3.5,0-6.2-1.1-8.3-3.4
		c-2.1-2.2-3.1-5.6-3.1-10.2v-2.9c0-4.5,1-7.9,3.1-10.2c2.1-2.2,4.8-3.4,8.3-3.4h0.5c3.5,0,6.2,1.1,8.3,3.4
		c2.1,2.3,3.1,5.6,3.1,10.2v2.9c0,4.5-1,7.9-3.1,10.2C434,218.7,431.3,219.8,427.8,219.8z"/>
	<polygon class="st2" points="344.1,208.5 359.5,208.5 360.6,200.6 344.1,200.6 344.1,190.4 364.4,190.4 364.4,182.5 334.8,182.5 
		334.8,227 364.8,227 364.8,219.2 344.1,219.2 	"/>
	<polygon class="st2" points="326.6,250.9 340,250.9 340,287.4 349.3,287.4 349.3,250.9 362.7,250.9 362.7,242.8 326.6,242.8 	"/>
</g>
</svg>
