<svg version="1.2" xmlns="http://www.w3.org/2000/svg" viewBox="0 0 1552 308" width="1552" height="308">
	<title>Sun Hung Kai Properties</title>
	<defs>
		<clipPath clipPathUnits="userSpaceOnUse" id="cp1">
			<path d="m1551.11 0v307.12h-1551.11v-307.12z"/>
		</clipPath>
		<clipPath clipPathUnits="userSpaceOnUse" id="cp2">
			<path d="m1551.11 0v307.12h-1551.11v-307.12z"/>
		</clipPath>
		<clipPath clipPathUnits="userSpaceOnUse" id="cp3">
			<path d="m1551.11 0v307.12h-1551.11v-307.12z"/>
		</clipPath>
		<clipPath clipPathUnits="userSpaceOnUse" id="cp4">
			<path d="m1551.11 0v307.12h-1551.11v-307.12z"/>
		</clipPath>
	</defs>
	<g>
		<path fill-rule="evenodd" fill="#231f20" d="m384.2 254.2h2.9c1.6 8 4.2 13.9 7.8 17.5 3.5 3.6 7.6 5.4 12.2 5.4 4.5 0 7.7-1.2 9.6-3.7q2.8-3.7 2.8-7.9c0-3.2-0.9-5.8-2.9-7.8q-2-2-7.9-5.2l-6.4-3.4c-6.4-3.4-10.9-6.8-13.5-10.1q-3.9-5-3.9-12.4 0-7.9 5.2-14.7 5.2-6.8 15.9-6.7 5.4 0 10.5 1.7c3.4 1.2 5.4 1.8 5.8 1.8q1.7 0 2.3-1c0.4-0.7 0.8-1.6 1-2.7h3v23.3h-2.8c-1.3-5.4-3.6-10-6.9-13.9-3.3-3.9-7.3-5.9-12.1-5.9q-4.9 0-7.8 3c-2 1.9-2.9 4.4-2.9 7.2 0 3.3 0.9 5.9 2.7 7.5 1.7 1.8 5.7 4.2 11.9 7.5l7.4 4q5 2.7 7.9 5.9 5.5 6.1 5.5 14.7c0 5.4-1.9 10.4-5.9 15.2-3.9 4.8-10.2 7.2-18.9 7.2-2 0-4.1-0.2-6.1-0.6q-3.1-0.6-6.1-1.8l-1.9-0.8c-0.4-0.2-0.9-0.3-1.3-0.4-0.4-0.1-0.7-0.1-1-0.1q-1.6 0-2.2 1c-0.4 0.6-0.7 1.5-1 2.7h-2.9zm76.9-24.3v36.3q0 3.2 0.8 4.7 1.2 2.6 5.1 2.6 2.4 0 4.7-1.6 1.3-0.9 3.3-3v-30.2q0.1-3.4-1.2-4.8-1.2-1.3-5.1-1.5v-2.5h20.1v38.5c0 2.2 0.4 3.7 1.2 4.5 0.8 0.8 2.3 1.3 4.6 1.6v2.5q-9.3 0.9-11.8 1.4-2.4 0.4-7.8 2.2v-7.1c-2.4 2.2-4.3 3.8-5.9 4.7q-4.1 2.4-8.6 2.4c-3.3 0-6.3-1.1-9.1-3.3q-4.2-3.3-4.2-11.7v-26.9q0-3.5-1.1-4.5c-0.7-0.7-2-1.3-4-1.8v-2.5zm41 46.7c1.9-0.3 3.2-0.8 4.1-1.7q1.3-1.2 1.3-4.8v-31.4q0-3.3-1.1-4.6-1-1.2-4.3-1.7v-2.5h19.1v7.7c1.6-2.6 3.7-4.7 6.1-6.4q3.8-2.5 8.3-2.5 6.5 0 10 3.5c2.4 2.4 3.6 6.5 3.6 12.5v25.8q0 3.6 1.2 4.7c0.7 0.7 2 1.1 3.8 1.4v2.5h-23.6v-2.5c1.8-0.4 3-1 3.7-1.6 0.6-0.7 0.9-2.2 0.9-4.5v-25.8q0-3.7-0.6-5.5c-0.8-2.2-2.4-3.3-4.7-3.3-1.8 0-3.4 0.7-4.8 2q-2.2 2-3.4 4.1v28.5c0 2.3 0.3 3.8 1 4.5 0.6 0.6 1.9 1.2 3.7 1.6v2.5h-24.3zm89.3-0.2c2.7-0.1 4.5-0.5 5.7-1.2 1.9-1.1 2.8-3.2 2.8-6.3v-51.7c0-3-0.8-5-2.5-6.1-1.1-0.6-3.1-1-6-1.4v-2.7h34v2.7c-2.9 0.2-4.9 0.6-6.1 1.3q-2.8 1.6-2.8 6.2v22.2h23.8v-22.2c0-3-0.9-5.1-2.7-6.2-1.1-0.6-3.2-1-6.3-1.3v-2.7h34.3v2.7c-2.9 0.3-4.9 0.7-6 1.4q-2.7 1.6-2.7 6.1v51.7c0 3.2 1 5.3 3 6.3q1.7 1.1 5.7 1.2v2.7h-34.3v-2.7q4.4-0.1 6.2-1.2c1.9-1.1 2.8-3.2 2.8-6.3v-24.6h-23.8v24.6c0 3.2 1 5.3 3 6.4q1.8 1 5.9 1.1v2.7h-34zm100.9-46.4v36.2q0 3.2 0.8 4.7c0.8 1.8 2.5 2.7 5.1 2.7 1.6 0 3.1-0.5 4.7-1.6 0.9-0.6 2-1.6 3.4-3v-30.3q0-3.3-1.3-4.7c-0.8-0.9-2.5-1.4-5-1.5v-2.5h20v38.5c0 2.2 0.4 3.6 1.2 4.5q1.2 1.2 4.6 1.5v2.6c-6.2 0.6-10.1 1.1-11.8 1.3q-2.4 0.5-7.7 2.2v-7c-2.4 2.2-4.4 3.7-6 4.7q-4.1 2.4-8.6 2.3c-3.2 0-6.3-1.1-9.1-3.3q-4.2-3.2-4.2-11.6v-27q0-3.4-1.1-4.4c-0.7-0.8-2-1.3-4-1.8v-2.5zm41.1 46.6c1.8-0.2 3.1-0.7 4-1.6q1.3-1.2 1.3-4.8v-31.5q0-3.2-1-4.5-1.1-1.3-4.3-1.7v-2.5h19v7.7c1.6-2.6 3.7-4.7 6.1-6.4q3.8-2.5 8.3-2.5c4.3 0 7.7 1.2 10 3.5 2.4 2.4 3.6 6.5 3.6 12.5v25.8q0 3.6 1.2 4.7c0.8 0.6 2 1.1 3.9 1.3v2.6h-23.7v-2.6c1.8-0.4 3-0.9 3.7-1.5 0.7-0.7 1-2.2 1-4.5v-25.9q0-3.6-0.8-5.4c-0.7-2.2-2.3-3.3-4.6-3.3-1.7 0-3.4 0.6-4.8 2-1.5 1.3-2.6 2.7-3.4 4v28.6c0 2.3 0.3 3.8 1 4.5 0.6 0.6 1.9 1.1 3.7 1.5v2.6h-24.2zm60.5 14.8c0-1.5 0.6-3.1 1.8-4.7q1.8-2.5 6.2-3.2v-0.7q-3-1.2-4.2-2.4c-1.6-1.5-2.4-3.5-2.4-6q0-4.5 3.7-7.7c2.5-2 4.9-3.5 7.3-4.4v-0.7q-5.2-2.2-8.3-6.3c-2.1-2.7-3.2-5.9-3.2-9.8q0-7.3 5.5-12 5.6-4.8 15-4.8c2.3 0 4.5 0.2 6.5 0.7q2.9 0.7 4.6 1.5h13.2v5.7h-8.1q2 2 3 4.7c0.7 1.8 1.1 3.8 1.1 5.9 0 6.7-3 11.3-9.1 13.8q-4.7 2-11.7 1.9-1.5 0-2 0c-0.4 0-0.8-0.1-1.4-0.1-1 0.2-2 0.8-3.1 1.7-1.2 1-1.7 2.1-1.7 3.4 0 1.1 0.3 1.9 0.8 2.5q0.9 0.9 2.3 1.1c0.5 0.1 1.6 0.2 3.2 0.3q2.4 0.1 3.7 0.1l6.6 0.1q5.5 0.1 9.3 1.7c4.9 2.1 7.3 5.8 7.3 11.2 0 6.9-3.6 11.7-10.8 14.3q-5.7 2-14.4 2-7.1 0-12.2-1.4-8.5-2.5-8.5-8.4zm9-0.7q0 3.3 3.3 5.1c2.2 1.3 5.4 1.9 9.6 1.9q5.6 0 9.2-0.9c4.5-1.2 6.8-3.3 6.8-6.6q0-2.8-1.9-4.1c-1.3-1-3.7-1.4-7.1-1.4h-16.4c-1.1 0.9-1.8 1.7-2.3 2.3-0.8 1.2-1.2 2.4-1.2 3.7zm5.7-44.8q0 6.2 1 9.2c1 3.1 2.8 4.7 5.6 4.7q3.8 0 5.3-3.6 1.4-3.5 1.4-10.3c0-4.8-0.5-8.2-1.5-10.4q-1.5-3.3-5.2-3.3-4 0-5.3 3.5c-0.9 2.4-1.3 5.7-1.3 10.2zm69 30.5q4.1-0.2 5.8-1.2c1.9-1.1 2.9-3.2 2.9-6.3v-51.7c0-3.1-0.9-5.2-2.6-6.2-1.1-0.7-3.2-1.1-6.1-1.3v-2.7h34v2.7c-3.4 0.3-5.7 1-6.9 2.1q-1.8 1.5-1.8 7.6v22.9l21.5-23.2q2.3-2.4 3-3.4 0.6-1 0.7-2.5-0.1-2-1.8-2.6-1.8-0.6-6.8-0.9v-2.7h29.2v2.7q-7.9 0.7-13 4.7c-3.4 2.6-9.9 9.2-19.4 19.5l30.6 40.4q1 1.2 2 1.6 0.9 0.3 3 0.5v2.7h-33.8v-2.7c3.1-0.1 5.1-0.2 6.3-0.4q1.6-0.4 1.6-1.9c0-0.4-0.1-1-0.5-1.7-0.4-0.7-1-1.7-1.9-2.9l-18.2-24.2-2.5 2.7v20.9c0 3.1 1 5.2 2.9 6.3q1.7 1 5.8 1.2v2.7h-34zm82.3-7.3c0-4.8 2.1-8.6 6.5-11.4 4.4-2.8 11.3-5.6 20.6-8.5v-7.7c0-3.2-0.6-5.5-1.9-7-1.3-1.5-3.5-2.3-6.8-2.3-1.8 0-3.3 0.4-4.5 1.1q-1.7 1-1.7 2.7c0 0.4 0.1 0.7 0.2 1 0.1 0.3 0.3 0.5 0.6 0.9l0.6 0.7q0.7 0.9 1.1 1.9 0.4 1.1 0.4 2.3c0 2-0.6 3.6-1.9 4.7q-1.9 1.6-4.4 1.6-2.9 0-4.9-1.8c-1.4-1.2-2.1-3-2.1-5.3 0-4.1 1.8-7.3 5.5-9.7q5.4-3.6 13.4-3.6 8.5 0.1 14.3 3.5 5.7 3.6 5.7 13v25.9c0 0.8 0.2 1.4 0.5 2 0.4 0.5 0.8 0.8 1.3 0.8q0.6 0 1.1-0.3c0.3-0.1 0.7-0.6 1.4-1.3l1.6 2.3q-3 3.6-6.6 5.1c-1.5 0.6-3.1 0.9-4.8 0.9q-4.4 0-6.5-2.8-1.2-1.5-1.7-4.6c-2.8 3-6 5.1-9.5 6.3q-3.1 1.1-6.2 1.1-4.2 0-7.7-2.8-3.6-2.8-3.6-8.7zm19.5 3.9c1.6 0 3.1-0.5 4.5-1.5q1.2-1 2.8-3v-15.6q-4 1-7 3.3c-3.5 2.6-5.2 5.8-5.2 9.7 0 2.4 0.5 4.2 1.5 5.3 1 1.2 2.2 1.8 3.4 1.8zm38.1-59.3q0-3.5 2.3-5.9 2.3-2.5 5.5-2.4c2.2 0 4 0.7 5.6 2.4q2.2 2.4 2.2 5.9 0 3.4-2.2 5.8c-1.6 1.7-3.4 2.5-5.6 2.5q-3.2 0-5.5-2.5-2.3-2.4-2.3-5.8zm-4.3 62.9c1.8-0.3 3-0.8 3.6-1.4 1-0.9 1.5-2.6 1.5-5.1v-31.4q0-3.3-1.1-4.5c-0.6-0.7-2-1.3-4-1.7v-2.6h19.3v40.7q0 3.5 1 4.4 1 1 3.6 1.6v2.6h-23.9zm61-0.3q5-0.3 6.7-2.1 1.7-1.9 1.7-7.5v-47.3c0-4-0.6-6.6-1.7-7.6q-1.7-1.5-6.7-2.1v-2.8h32.4c8.6 0 15.1 1.5 19.6 4.5 4.5 2.9 6.7 8 6.7 15.2 0 3.5-0.9 6.8-2.6 9.8q-2.7 4.7-8.7 7.5-4.6 1.9-9.1 2.4-4.6 0.4-13.6 0.4v20c0 3.9 0.6 6.4 1.8 7.6 1.3 1.2 3.6 1.9 6.9 2v2.8h-33.4zm24.7-33.4q9-0.1 12-2.2c3.2-2.1 4.8-6.8 4.8-13.9q0-7.4-2.3-11.9c-1.6-3-4.5-4.5-8.9-4.5-2 0-3.4 0.3-4.3 0.8q-1.3 0.8-1.3 3zm41 33.5c1.9-0.3 3.2-0.7 4-1.5q1.1-1.1 1.2-4.2l0.1-3.1v-29.1q0-3.4-1-4.6-1.2-1.2-4.3-1.6v-2.6h19.1v8.5c2.1-3 4.2-5.3 6.3-7.1 2.1-1.7 4.5-2.6 7.3-2.6q3 0 5.5 2.1c1.7 1.5 2.5 3.5 2.5 6.2 0 2.2-0.6 3.8-1.7 5.2q-1.8 2.1-4.6 2.1-3.2 0-5.5-3.3-2.4-3.1-3.3-3.1c-1.4 0-2.7 0.9-4 2.6q-2.1 2.6-2.1 7.6v20.2c0 3.5 0.5 5.7 1.5 6.5q1.4 1.4 5.8 1.8v2.5h-26.8zm47.2-21.9c0-7.4 2.1-13.7 6.4-18.6 4.4-5 9.8-7.5 16.3-7.5 6.6 0 12.1 2.5 16.3 7.6 4.2 5.1 6.4 11.3 6.4 18.5 0 7.1-2.2 13.3-6.3 18.4q-6.3 7.7-16.4 7.7-9.9 0-16.3-7.5c-4.3-5-6.4-11.2-6.4-18.6zm14.7 0c0 7.5 0.4 12.7 1.1 15.7 1.2 4.7 3.5 6.9 6.9 6.9 3.2 0 5.4-1.7 6.4-5.3 1-3.5 1.5-9.3 1.5-17.3 0-7.9-0.5-13.7-1.6-17.3-1.1-3.6-3.1-5.4-6.3-5.4-3.4 0-5.7 2.4-6.8 7-0.8 3.1-1.2 8.3-1.2 15.7zm39.2 43.9q3.2-0.3 4.4-1.6 1.2-1.2 1.2-4.6v-53.7c0-2.2-0.4-3.7-1.1-4.5-0.7-0.8-2.2-1.4-4.2-1.7v-2.5h19.2v7q2.1-3.7 4-5.4 3.6-3 9.1-3c5.3 0 9.7 2.1 13.1 6.3q5.3 6.3 5.3 18.8c0 7.8-1.9 14.2-5.6 19.3q-5.7 7.6-13.7 7.6-4.1 0-7.8-2.5-2-1.4-4.1-3.9v9.1c0.1 4.8 0.1 7.5 0.1 8.1q0.3 4.2 2 5.8 1.7 1.5 5.7 1.8v2.2h-27.6zm27.7-23.9q5.5 0 7.5-7.7c0.7-2.8 1-6.9 1-12.2q0-9.2-1.6-14.6c-1.1-3.6-3.2-5.5-6.4-5.5q-3.3 0-5.9 3.1c-1.6 2-2.5 3.5-2.5 4.3v26q0 1.6 2.4 4.1 2.5 2.5 5.5 2.5zm32.6-20.1c0-8.2 2-14.5 6.1-19.1 4.2-4.5 9.1-6.8 14.9-6.8 3.3 0 6.4 0.9 9.3 2.8 3 1.8 5.2 4.4 6.8 7.7q1.7 3.7 2.4 9.6c0.2 1.9 0.4 3.2 0.4 4.2h-25.6c0.2 4.3 0.9 8 1.9 11.1 2 5.8 5.5 8.7 10.4 8.7 2.3 0 4.6-0.7 6.7-2.3 1.2-0.9 2.8-2.5 4.7-4.7l2.3 1.5q-4.7 8.1-10.8 11.3-4 2-9.1 2-7.4 0-14-6.2-6.4-6.2-6.4-19.8zm27.5-5.5c-0.1-6.3-0.5-10.7-1.4-13.2q-1.3-3.7-5.1-3.7c-2.6 0-4.4 1.4-5.3 4.3-1 2.9-1.6 7.1-1.7 12.6zm20.8 27.5c1.9-0.3 3.2-0.7 4-1.5q1.1-1.1 1.2-4.2l0.1-3.1v-29.1q0-3.4-1.1-4.6-1.1-1.2-4.2-1.6v-2.6h19.1v8.5c2.1-3 4.2-5.3 6.3-7.1 2.1-1.7 4.5-2.6 7.2-2.6 2.1 0 4 0.7 5.6 2.1q2.5 2.2 2.5 6.2c0 2.1-0.6 3.8-1.7 5.2q-1.8 2.1-4.6 2.1-3.2 0-5.5-3.3-2.4-3.1-3.3-3.1-2 0-4 2.6-2.1 2.6-2.1 7.6v20.2c0 3.5 0.5 5.7 1.5 6.5q1.4 1.4 5.8 1.8v2.5h-26.8zm48.5-42v-3q1.2-1.3 3.2-3c1.8-1.7 3.4-3.5 4.9-5.3 3.1-3.5 5.9-7.3 8.3-11.3h2.6v18h9.6v4.6h-9.6v32.2q0 2.3 0.7 3.8c0.6 1.6 1.7 2.4 3.2 2.4 1.3 0 2.4-0.6 3.2-1.5 0.9-1 1.8-2.3 2.7-4.1l2.4 1.3c-1.2 2.9-2.6 5.3-4.2 7.1q-4.3 4.8-10.5 4.8-3.6 0-6.2-1.4c-3.4-1.8-5.1-5.1-5.1-9.8v-34.8zm41.7-20.9q0-3.5 2.3-5.9c1.5-1.6 3.4-2.4 5.5-2.4 2.2 0 4 0.8 5.5 2.4q2.3 2.4 2.3 5.9 0 3.5-2.3 5.9-2.3 2.4-5.5 2.4-3.2 0-5.5-2.4-2.3-2.4-2.3-5.9zm-4.3 62.9c1.7-0.3 2.9-0.7 3.6-1.4q1.4-1.4 1.4-5v-31.5q0-3.2-1-4.4c-0.6-0.8-2-1.4-4-1.8v-2.6h19.3v40.7q0 3.5 1 4.5c0.6 0.6 1.9 1.1 3.6 1.5v2.6h-23.9zm32.5-22c0-8.2 2.1-14.6 6.2-19.1q6.1-6.8 14.8-6.8c3.3 0 6.4 0.9 9.4 2.8q4.3 2.7 6.7 7.6c1.2 2.5 1.9 5.7 2.4 9.7 0.2 1.8 0.4 3.2 0.4 4.2h-25.6q0.3 6.4 1.9 11 3 8.8 10.4 8.8 3.5 0 6.7-2.3c1.2-0.9 2.8-2.5 4.7-4.7l2.3 1.5c-3.1 5.4-6.7 9.1-10.8 11.2q-4 2.1-9.2 2.1-7.4 0-13.9-6.2-6.4-6.2-6.4-19.8zm27.5-5.5c-0.1-6.3-0.6-10.7-1.4-13.2-0.8-2.5-2.6-3.7-5.1-3.7-2.6 0-4.4 1.4-5.4 4.3q-1.4 4.3-1.6 12.6zm21.5 13.8h2.8q1.5 7.6 5.5 10.8 4 3.1 8.2 3.1 3.9 0 5.7-1.8 1.8-1.9 1.8-4.9 0-2.9-1.9-4.9c-0.8-0.7-1.9-1.5-3.5-2.3l-7.5-3.9c-3.9-2-6.7-4.2-8.4-6.6q-2.6-3.6-2.6-8.5 0-6.2 4.1-10.7 4.1-4.5 11.4-4.5c2.1 0 4.3 0.4 6.8 1.2 2.3 0.7 3.9 1.1 4.4 1.1q1.2 0 1.8-0.6c0.3-0.3 0.6-0.9 0.8-1.5h2.2v15.4h-2.5c-1-3.6-2.6-6.5-4.7-8.7q-3.3-3.4-7.7-3.4c-2.2 0-3.9 0.7-4.9 2-1.2 1.3-1.7 2.8-1.7 4.3q0 1.9 1.5 3.8 1.4 1.9 5.4 3.9l5.5 2.8q5.2 2.6 7.6 5.1 3.9 4.2 3.9 10.3c0 3.9-1.3 7.6-4 11-2.7 3.5-6.8 5.2-12.2 5.2-1.4 0-2.7-0.2-4-0.5-1.4-0.3-3.1-0.8-5.1-1.5l-1.7-0.6c-0.6-0.3-1-0.4-1.2-0.5q-0.2 0-0.5 0c-0.6 0-1.1 0.2-1.5 0.7q-0.6 0.7-1.4 2.4h-2.4zm-1109.5-232.5c0 0-13.9-5.9-3.3-13.1 0 0 32.5 0 44.4 2 0 0 6.6 9.2-5.3 11.1 0 0-19.9 2-35.8 0zm49.1 70.3c-6 0.7-19.3-2.6-19.3-2.6l1.3-7.9 12-1.3c15.9-11.2-6-14.5-6-14.5 4.7-5.9 6.6-18.4 6.6-18.4 10.6-7.2 2.7-14.4 2.7-14.4-12.6-2-60.3 0.7-60.3 0.7-15.9 11.1 4 15.1 4 15.1l5.2 18.3c-9.9 2.7-13.2 9.3-8.5 12.5 4.6 3.3 20.5 4 23.8 2 3.3-2 2 10.5 2 10.5-7.9 2-28.5 1.3-28.5 1.3-13.2 5.3-4 10.5-4 10.5 5.8 3.8 30.8 2.1 31.6 0.8-0.6 2.6 1.6 31.4 1.6 31.4 3.3 7.2 5.9 9.2 7.9 8.5 2-0.6 7.3-0.6 6.6-7.9-0.6-7.2 0-32.8 2-32.1 2 0.6 14.6 0 14.6 0 14.6-8.6 4.7-12.5 4.7-12.5zm-23.9-27.6c0 0-2.7 4.6-10.6 0.7 0 0-8.6-7.2-6.6-19.7l0.6 1.3c0 0 7.3-4.6 15.2-1.3 0 0 6.7 10.5 1.4 19z"/>
		<path fill-rule="evenodd" fill="#231f20" d="m468.4 149.3c0 0-8 1.3-5.3-12.5 2.6-13.8 3.3-58.4 2.6-63-0.6-4.6-4.6-30.9-5.3-35.5-0.6-4.5-8.6-13.7 8.6-17.7 17.3-3.9 30.5-3.9 41.1-7.2 10.6-3.3 19.9 15.7 11.9 19-7.9 3.3-38.4 2.7-41.7 2-3.3-0.6-6.6 7.9 0.7 18.4 0 0 9.9 1.3 15.9 0.6 5.9-0.6 0.9-6.2 15.9-1.3 1.9 0.7 13.2-1.3 21.2-5.2 0 0 9.2 3.9 11.9 9.8 2.6 5.9-6.6 19.1-11.3 21-4.6 2-14.6 2-14.6 2 0 0-2 30.2-0.6 43.3 1.3 13.2 2 20.4-1.3 23-3.4 2.6-2 13.1-12 7.9-9.9-5.3-8.6-5.3-7.9-19.7 0.6-14.4-2-49.2-2.7-53.2-0.6-3.9-13.2-5.9-11.2-3.3 2 2.6 0 72.3-15.9 71.6zm-71.6-26.9c0 0 19.9-7.9 16.6 10.5 0 0 4.6 7.2-11.9 7.8 0 0-3.3-1.3-6-4.6 0 0 0-5.9 1.3-13.7zm45.1-0.7c0 0 10.6-5.9 16.6 9.8 0 0 0.6 7.3-8.7 7.3 0 0-7.9-2-9.9-7.3-2-5.2-4-3.9 2-9.8zm220.3-66.3c0 0-12.6 0-13.9-11.8 0 0-4-9.2 0.7-15.1 0 0 7.2-10.5 13.9-8.5 6.6 1.9 6.6 9.8 16.5 11.8 0 0 4 5.2 0 8.5-3.9 3.3-5.3 7.2-7.3 9.2-1.9 2-4.6 5.3-9.9 5.9zm-18.6 13.8c0 0 11.1-3.1 16 6.6 0.6 1.3 5.9 3.3 9.2 5.2 0 0-2.6 5.9-5.3 9.9-2.6 3.9 2.7 9.2-7.3 11.8-9.9 2.6-23.1-19.7-12.6-33.5zm36.5 63.7c0 5.2-3.3 13.8-6 13.8-2.6 0-14.5 4.5-17.2-5.9-2.6-10.6-2.6-15.8 0-19.1 2.7-3.3 13.3-7.9 13.3-7.9 0.6 7.9 9.9 13.8 9.9 19.1zm11.9-11.9c0 0 5.3-0.6 8 10.5 2.6 11.2-3.3 11.2-6 11.9-2.6 0.7-8.6 0-7.3-10.5 1.4-10.5-7.9 0 5.3-11.9zm17.9 0c0 0 8 4 6 7.9-2 4 2.6 6.6-3.4 9.9-5.9 3.2-5.2 0-6.6-5.9-1.3-5.9-1.3-5.9-1.3-8.6 0-2.6-2-4.5 5.3-3.3zm17.2 0c0 0 6.7 1.4 7.3 8.6 0.7 7.2-1.3 6.6-4 9.2-2.6 2.6-4.6 2.6-5.9 0.6-1.3-1.9-1.3-9.2-0.7-9.2 0.7 0-2-4.5 3.3-9.2zm16-1.2c0 0 5.9-1.4 10.5 7.8 4.7 9.2 0 7.9-1.3 10.5-1.3 2.7-6.6 1.3-8.6 0-2-1.3-3.3-10.5-3.3-10.5 0 0-6-9.8 2.7-7.8z"/>
		<path fill-rule="evenodd" fill="#231f20" d="m794.1 87.6c-2 1.9-2.7 8.5-12 8.5-9.2 0-43.7-5.9-51-5.2 0 0-1.3 2.6-0.7 7.2 0.7 4.6 33.2 3.9 45.1 2 12-2 10.6 11.1 12 15 1.2 4-0.7 14.5-2.7 18.4-2 4-10.6 21.7-20.6 20.4 0 0-6.6-2.7-2.6-15.1 3.9-12.5 8-17.7-2.7-24.3 0 0-34.4 3.3-39.1-2.6-4.6-5.9-3.9 5.2-3.9-12.5 0-17.7 0.7-32.8-4-38.1 0 0-8.6 4.6-12.6 5.3-3.9 0.6-2.6 6.5-3.3 13.1-0.6 6.6 9.9 6.6 11.9 8.5 2 2 3.3 5.9 1.3 9.2-2 3.3-1.3 5.3-7.2 6.6-6 1.3-14.6 3.9-23.9 1.3 0 0-6.6 7.9-6-13.8 0 0 2.1-0.6 8-3.9 6-3.3 0-11.8 0-15.8 0-3.9-8.6-2.6-9.9-11.1-1.4-8.6 9.2-7.9 13.9-7.9 4.6 0 23.8-0.7 25.1-1.3 1.4-0.7-0.6-11.2-0.6-15.8 0-4.6-2.7-11.8 15.2-12.5 0 0-0.6-13.7 8-13.1 8.6 0.7 10.6 2.6 12.6 11.8 0 0 3.3 2.6 9.2 0.7 6-2 14.6-8.6 21.2 0.6 6.7 9.2 4 15.1 0.7 21.1-3.3 5.9-2.6 27.5-16.6 29.5-13.9 2-25.8-1.3-25.8-1.3l-0.6 5.9c0 0 52.9-2 58.9-4 6-1.9 4.6 11.2 2.7 13.2zm-63.7-43.3c15.9 5.2 21.3-1.4 23.2-1.4 2 0 4-3.9-1.3-7.2-5.3-3.3-27.2 0.7-27.2 0.7-0.6 7.9 5.3 7.9 5.3 7.9zm21.9 17c2.6-0.6 2.6-2.6 0.7-4.6-2-1.9-24.5-0.7-24.5-0.7v7.3c0 0 21.1-1.3 23.8-2zm295.4 63.7c0 0-4.6 17.7-21.2 15.8 0 0-7.9-9.3-15.9-15.8-7.9-6.6-13.9-13.8-13.9-13.8 0 0 0.7 7.2-4.6 7.9-5.3 0.7-8 2.6-13.3 2.6 0 0-1.9 6.6 0 9.8 2 3.4 21.2-1.9 24.5 2 3.4 4 7.3 1.4 5.4 15.8 0 0-2 1.9-14.6 1.3-12.6-0.6-47.1 3.3-58.9 0.6-12-2.6-8-13.1-2.7-16.3 0 0 23.2-1.3 26.5-2.7 0 0 2-4.6 0-9.8 0 0-15.3 0-19.2-2-4-2-6.7-7.2-7.3-5.3-0.7 2-17.2 19.1-27.8 21.1-10.6 1.9-25.9 1.3-13.3-15.8 0 0-5.9 0 14.6-7.2 0 0 25.1-16.5 26.5-23 0 0-19.9 2-25.2-2-5.3-3.9-9.3-10.5 1.3-15.1 0 0 15.3-0.6 23.2-0.6 0 0 0-21 0.7-23 0.6-2-1.4-15.7-4.7-17.7-3.3-2-9.9 0-9.9-9.2 0 0-2-0.7 2-4 4-3.3 5.3 2 7.9-3.9 0 0 2.7-5.9 8-4.6 5.3 1.3 6.6 1.3 10.6 6.6 4 5.2 34.4-1.4 37.7 0 3.4 1.3 0-8.6 10-10.5 9.9-2 9.2 6.5 9.9 9.8 0.7 3.3 13.9-0.7 10.6 8.5-3.3 9.3-8.6 6-8.6 7.9 0 2 0.7 35.5 0.7 37.5 0 1.9 5.3 0.6 10.6 0 5.2-0.7 11.9-3.3 17.2 9.8 0 0 4 7.2-13.3 6.6l-16.5 0.6c0 0-4 11.2 37.1 21.7 0 0 12.6 3.9 5.9 16.4zm-100.7-87.3c2.7 0.6 35.1 0.6 38.4-2.6 3.4-3.3-1.3-6-1.3-6-3.9 1.4-36.4 2-36.4 2-2.6 2-3.3 5.9-0.7 6.6zm38.4 8.5c-3.3 0.7-38.4 2-38.4 2-3.3 3.9 0.7 5.9 0.7 5.9 6 2.6 38.4 1.3 39.1-1.3 0.7-2.6 2-7.3-1.4-6.6zm0.7 20.4c-4 0-39.1-1.3-39.1-1.3-0.6 9.8 5.4 7.2 5.4 7.2 15.8 0.6 35.1-0.7 35.7-2.6 0.7-2 2-3.3-2-3.3zm3.4 37.4c-3.4-2.6-10.7-17.7-14.6-16.4-4 1.3-19.3 0-19.3 0-9.9 13.1-10.5 13.8-11.9 15.7-1.3 2 1.4 3.3 1.4 3.3 5.3 1.3 13.9 0 13.2-1.3-2.4-4.7 1.4-12.5 9.3-11.8 7.9 0.6 10.6 12.5 10.6 12.5 0 0 14.6 0.6 11.3-2zm202.8 23.6c0 0-19.2 9.9-39.7 6.6 0 0-7.3-2.7-6.7-12.5 0 0 3.4-9.8 8-10.5 4.7-0.7 10.6-1.3 11.9-1.9 1.4-0.7 0-17.1 0-19.7 0-2.7 0.7-4-6.6-9.9 0 0-10.6 3.9-15.2-6.6-4.7-10.5-0.7-17 2.6-19.6 3.3-2.7 8-0.7 11.3-0.7 3.3 0 1.3-11.2 2-19 0.6-7.9 9.9-7.9 13.2-7.9 3.3 0 8.6 2.6 9.3 9.8 0.6 7.2 0.6 17.8 0.6 17.8l12 1.9c0 0 3.3 5.3 2 10.5-1.4 5.3-12 13.1-12 13.1 0 0-4.6 25 0 28.9 4.7 4 11.3 2 7.3 19.7z"/>
		<path fill-rule="evenodd" fill="#231f20" d="m1193.7 92.8c0 0 10.5-7.2 13.2-15.7 2.6-8.5 2-7.9-6-19.1 0 0-6.6-4.6 4.7-8.5 0 0 0-9.8 8.6-11.2 0 0 5.3 2.7 7.9 7.9h8c1.3 0 1.3-7.9 1.3-13.8 0-5.9 9.3-11.1 13.9-10.5 4.7 0.7 11.3 7.9 7.3 16.4l0.7 7.2c0 0 3.9 2.7 8.6 1.4 4.6-1.4 6.6-8.6 16.5-5.9 10 2.6 10 6.5 8 19.7-2 13.1-8 43.9-13.9 44.6-6 0.7-11.3 9.9-11.3-0.7 0-10.4 4.7-37.4 2-40-2.7-2.6-2-8.5-11.3-3.3 0 0 0 34.8-1.3 37.5-1.3 2.6-5.9 10.5-13.2 9.1-7.3-1.3-5.4-7.2-4.7-13.1 0.7-5.9 0-24.9-2-30.9 0 0-7.9-1.9-11.2 14.5 0 0 1.3 32.8 2.6 36.1 1.4 3.3 19.9 13.1 78.8 0 0 0 14-2.6 8 14.4 0 0-4 21.1-15.2 23-11.3 2-69.6 2.6-84.8-14.4 0 0-5.3-15.1-1.4-35.5l-14.5-1.9c0 0-4.6-2.7 0.7-7.3zm251.4-64.3c0 0-9.3 3.9-11.9-7.2 0 0-4-7.9 11.2-7.9 15.3 0 54.4-2.6 76.2-1.3 0 0 8.6 0.6 8.6 6.5 0 6-3.3 6.6-8.6 7.9-5.3 1.3-75.5 2-75.5 2zm106 106.4c0 3.9-5.9 17-12.6 17.7-6.6 0.6-18.5-2-22.5-2.7-4-0.6-21.2-4.5-23.8-3.2-2.7 1.3-43.1 0-45.8 1.3-2.6 1.3-14.5-2.6-14.5-13.1 0-10.6 7.3-5.3 9.9-6 2.6-0.6 34.4-1.9 34.4-1.9l1.4-10.5c0 0-20.6 0.6-23.9-1.4-3.3-1.9-7.9-2.6-7.3-5.8 0.7-3.4 4.7-5.3 15.3-4.7 10.6 0.7 14.5-1.3 14.5-1.3l-0.6-9.2-15.9-0.6c0 0-9.9 3.9-11.3 0-1.3-4-2.6-9.2-0.6-11.2 2-2 5.3-9.2 7.3-8.5 1.9 0.6 6.6 3.9 9.2 7.2 2.7 3.3 8 0.7 10.6 0.7 2.7 0 4.7-9.2 4.7-9.2l-2-2.6c0 0-36.5 1.3-38.4 1.9-2 0.7 2.6 24.3-0.7 28.3-3.3 3.9 1.3 24.2-29.8 49.2 0 0-7.3 5.9-11.9 1.9-4.7-3.9-4-9.8-0.7-13.1 3.3-3.2 13.9-13.8 15.9-15.1 2-1.3 6.6-11.8 7.9-22.9 1.4-11.2-2.6-21.7-4.6-25.7-2-3.9 2-12.4 6-13.1 4-0.6 9.3-2 11.2-0.6 2 1.3 12.6-1.4 14.6-1.4 2 0 2.7-5.2 2.7-5.2 0 0-2.7-5.2-7.4-4.6-4.6 0.7-14.5 0.7-16.5-2 0 0-2.7-9.8 2.7-10.5 5.3-0.6 96.7-2.6 105.9 0 0 0 2.7 4.6-1.3 5.9-3.9 1.3-10.6 2-10.6 2 0 0-11.2 7.9-10.6 11.8 0.7 4 21.2-1.3 23.2 0.7 2 1.9 2 13.1-2.6 13.1-4.7 0-37.8 0.7-43.8-1.3-5.9-2-1.9 2.6-1.9 2.6 0 0 8.6 3.3 9.2 7.3 0.7 3.9 29.8 1.9 29.8 1.9 0 0 10 2.6 8 7.2-2 4.6-4.6 5.3-8.6 5.3-4 0-23.9 1.9-25.2 1.3-1.3-0.7-2.6 2.6-1.3 7.2 1.3 4.6 25.8 0 29.8 1.3 4 1.3 4 4 3.3 6-0.7 1.9-2 4.5-8.6 5.2-6.6 0.6-20.5-0.7-21.9 0-1.3 0.6-2.6 6.5-2.6 10.5 0 3.9 43 1.3 46.3 2 3.4 0.6 6 3.9 6 7.9zm-57.3-79.2c4.6-1.9 0-9.2 0-9.2-5.9-1.9-26.5 0.7-26.5 0.7-3.3 0.7-3.3 8.5-0.7 9.2 2.7 0.7 22.5 1.3 27.2-0.7z"/>
		<g id="Clip-Path" clip-path="url(#cp1)">
			<path fill-rule="evenodd" fill="#ec1d24" d="m308.3 0v307.1h-308.3v-307.1z"/>
		</g>
		<g id="Clip-Path" clip-path="url(#cp2)">
			<path fill-rule="evenodd" fill="#fefefe" d="m173 15h-52.9c0 0-85 19.2-85 96.8 0 64.3 62.1 85.1 62.1 85.1 0 0 56.4 24.3 56.4 52.2 0 27.9-21.8 43.1-21.8 43.1h63c0 0 78.4-22.8 78.4-95.3 0-48.2-41.7-73-61.6-83.6-19.8-10.7-31-17.8-31-17.8 0 0-23.9-14.1-23.9-39 0-27.4 16.3-41.5 16.3-41.5z"/>
		</g>
		<g id="Clip-Path" clip-path="url(#cp3)">
			<path fill-rule="evenodd" fill="#fefefe" d="m62.4 254.2v24.5h-22.9v-66.9h22.9v24.3h18.5v-24.3h22.8v66.9h-22.8v-24.4z"/>
		</g>
		<g id="Clip-Path" clip-path="url(#cp4)">
			<path fill-rule="evenodd" fill="#fefefe" d="m232.3 72.9h-5.3v23.4h-22.7v-66.9h22.7v20.1h3.8l17.3-20.1h22.5l-22.6 26.8 22.7 40.1h-25.2z"/>
		</g>
	</g>
</svg>