<?xml version="1.0" encoding="UTF-8" standalone="no"?>
<svg
   xmlns:dc="http://purl.org/dc/elements/1.1/"
   xmlns:cc="http://creativecommons.org/ns#"
   xmlns:rdf="http://www.w3.org/1999/02/22-rdf-syntax-ns#"
   xmlns:svg="http://www.w3.org/2000/svg"
   xmlns="http://www.w3.org/2000/svg"
   viewBox="0 0 154.52267 41.727867"
   height="41.727867"
   width="154.52267"
   xml:space="preserve"
   id="svg2"
   version="1.1"><metadata
     id="metadata8"><rdf:RDF><cc:Work
         rdf:about=""><dc:format>image/svg+xml</dc:format><dc:type
           rdf:resource="http://purl.org/dc/dcmitype/StillImage" /></cc:Work></rdf:RDF></metadata><defs
     id="defs6"><clipPath
       id="clipPath18"
       clipPathUnits="userSpaceOnUse"><path
         id="path16"
         d="M 0,31.296 H 115.892 V 0 H 0 Z" /></clipPath><clipPath
       id="clipPath46"
       clipPathUnits="userSpaceOnUse"><path
         id="path44"
         d="m 19.968,8.898 c 0,-2.572 2.087,-4.655 4.659,-4.655 v 0 c 2.571,0 4.658,2.083 4.658,4.655 v 0 c 0,2.571 -2.087,4.657 -4.658,4.657 v 0 c -2.572,0 -4.659,-2.086 -4.659,-4.657" /></clipPath><radialGradient
       id="radialGradient60"
       spreadMethod="pad"
       gradientTransform="matrix(6.7537546,0,0,-6.7537546,23.871094,10.050781)"
       gradientUnits="userSpaceOnUse"
       r="1"
       cy="0"
       cx="0"
       fy="0"
       fx="0"><stop
         id="stop52"
         offset="0"
         style="stop-opacity:1;stop-color:#ffffff" /><stop
         id="stop54"
         offset="0.120879"
         style="stop-opacity:1;stop-color:#ffffff" /><stop
         id="stop56"
         offset="0.67033"
         style="stop-opacity:1;stop-color:#0072bc" /><stop
         id="stop58"
         offset="1"
         style="stop-opacity:1;stop-color:#231916" /></radialGradient><clipPath
       id="clipPath70"
       clipPathUnits="userSpaceOnUse"><path
         id="path68"
         d="M 0,31.296 H 115.892 V 0 H 0 Z" /></clipPath></defs><g
     transform="matrix(1.3333333,0,0,-1.3333333,0,41.727867)"
     id="g10"><g
       id="g12"><g
         clip-path="url(#clipPath18)"
         id="g14"><g
           transform="translate(104.6001,3.7266)"
           id="g20"><path
             id="path22"
             style="fill:#d0121b;fill-opacity:1;fill-rule:nonzero;stroke:none"
             d="M 0,0 C 0,0.475 0.002,3.723 0.002,4.197 -0.41,3.961 -3.226,2.336 -3.636,2.098 -3.226,1.861 -0.411,0.236 0,0" /></g><g
           transform="translate(15.2007,11.7969)"
           id="g24"><path
             id="path26"
             style="fill:#0075c2;fill-opacity:1;fill-rule:nonzero;stroke:none"
             d="m 0,0 c 0,2.158 1.341,3.907 3.402,4.505 2.624,0.611 4.994,3.394 4.994,6.516 0,3.724 -3.019,6.746 -6.745,6.746 -3.726,0 -6.746,-3.022 -6.746,-6.746 0,-0.618 0.37,-2.516 0.37,-2.907 0,-2.133 -1.491,-3.968 -3.44,-4.506 -2.975,-0.912 -4.96,-3.399 -4.96,-6.508 0,-3.725 3.02,-6.745 6.745,-6.745 3.726,0 6.746,3.02 6.746,6.745 C 0.366,-2.285 0,-0.408 0,0" /></g><g
           transform="translate(21.563,22.8701)"
           id="g28"><path
             id="path30"
             style="fill:#bbe3f9;fill-opacity:1;fill-rule:nonzero;stroke:none"
             d="m 0,0 c 0,-2.572 -2.086,-4.656 -4.658,-4.656 -2.572,0 -4.657,2.084 -4.657,4.656 0,2.572 2.085,4.658 4.657,4.658 C -2.086,4.658 0,2.572 0,0" /></g><g
           transform="translate(13.478,8.9336)"
           id="g32"><path
             id="path34"
             style="fill:#bbe3f9;fill-opacity:1;fill-rule:nonzero;stroke:none"
             d="m 0,0 c 0,-2.572 -2.084,-4.658 -4.657,-4.658 -2.572,0 -4.657,2.086 -4.657,4.658 0,2.572 2.085,4.658 4.657,4.658 C -2.084,4.658 0,2.572 0,0" /></g><g
           transform="translate(31.3716,8.8984)"
           id="g36"><path
             id="path38"
             style="fill:#005184;fill-opacity:1;fill-rule:nonzero;stroke:none"
             d="m 0,0 c 0,-3.727 -3.021,-6.746 -6.745,-6.746 -3.726,0 -6.746,3.019 -6.746,6.746 0,3.725 3.02,6.745 6.746,6.745 C -3.021,6.745 0,3.725 0,0" /></g></g></g><g
       id="g40"><g
         clip-path="url(#clipPath46)"
         id="g42"><g
           id="g48"><g
             id="g50"><path
               id="path62"
               style="fill:url(#radialGradient60);stroke:none"
               d="m 19.968,8.898 c 0,-2.572 2.087,-4.655 4.659,-4.655 v 0 c 2.571,0 4.658,2.083 4.658,4.655 v 0 c 0,2.571 -2.087,4.657 -4.658,4.657 v 0 c -2.572,0 -4.659,-2.086 -4.659,-4.657" /></g></g></g></g><g
       id="g64"><g
         clip-path="url(#clipPath70)"
         id="g66"><g
           transform="translate(36.7388,5.1953)"
           id="g72"><path
             id="path74"
             style="fill:#727272;fill-opacity:1;fill-rule:nonzero;stroke:none"
             d="m 0,0 h 3.033 v 9.712 h 3.474 v 2.08 H -3.474 V 9.712 H 0 Z" /></g><g
           transform="translate(45.6528,11.7793)"
           id="g76"><path
             id="path78"
             style="fill:#727272;fill-opacity:1;fill-rule:nonzero;stroke:none"
             d="m 0,0 -0.048,-0.1 h -0.156 -0.174 v 1.596 h -2.416 v -8.08 h 2.758 v 3.953 c 0,1.35 1.018,2.223 2.596,2.223 H 3.095 V 1.6 H 2.652 C 1.451,1.6 0.46,1.002 0,0" /></g><g
           transform="translate(49.2954,15.9639)"
           id="g80"><path
             id="path82"
             style="fill:#727272;fill-opacity:1;fill-rule:nonzero;stroke:none"
             d="m 0,0 c 0,-0.748 0.613,-1.229 1.562,-1.229 0.949,0 1.563,0.481 1.563,1.229 0,0.748 -0.614,1.23 -1.563,1.23 C 0.613,1.23 0,0.748 0,0" /></g><path
           id="path84"
           style="fill:#727272;fill-opacity:1;fill-rule:nonzero;stroke:none"
           d="M 52.146,13.275 H 49.57 v -8.08 h 2.576 z" /><g
           transform="translate(58.6431,13.4824)"
           id="g86"><path
             id="path88"
             style="fill:#727272;fill-opacity:1;fill-rule:nonzero;stroke:none"
             d="m 0,0 c -3.05,0 -5.264,-1.822 -5.264,-4.334 0,-1.937 1.605,-4.021 5.126,-4.021 0.564,0 1.134,0.085 1.677,0.179 v 1.942 C 1.053,-6.365 0.604,-6.451 0.045,-6.451 c -1.558,0 -2.733,0.947 -2.733,2.203 0,1.334 1.16,2.377 2.642,2.377 1.688,0 2.779,-0.723 2.779,-1.838 V -8.287 H 5.31 v 4.682 C 5.31,-1.447 3.176,0 0,0" /></g><g
           transform="translate(69.6382,13.4824)"
           id="g90"><path
             id="path92"
             style="fill:#727272;fill-opacity:1;fill-rule:nonzero;stroke:none"
             d="m 0,0 c -2.768,0 -4.418,-0.984 -4.418,-2.635 v -5.652 h 2.575 v 4.891 c 0,0.968 0.672,1.525 1.843,1.525 1.17,0 1.842,-0.557 1.842,-1.525 v -4.891 h 2.577 v 5.652 C 4.419,-0.984 2.767,0 0,0" /></g><g
           transform="translate(80.2446,13.4824)"
           id="g94"><path
             id="path96"
             style="fill:#727272;fill-opacity:1;fill-rule:nonzero;stroke:none"
             d="m 0,0 c -3.135,0 -5.241,-1.664 -5.241,-4.143 0,-2.474 2.057,-4.074 5.241,-4.074 0.341,0 0.907,0.059 1.448,0.19 v 1.949 C 1.088,-6.16 0.645,-6.242 0,-6.242 c -1.595,0 -2.665,0.859 -2.665,2.135 0,1.296 1.096,2.201 2.665,2.201 1.283,0 2.665,-0.672 2.665,-2.151 v -4.127 c 0,-1.978 -2.35,-1.978 -3.122,-1.978 -1.205,0 -2.206,0.139 -3.299,0.435 v -1.904 c 0.987,-0.262 2.114,-0.402 3.366,-0.402 3.737,0 5.63,1.414 5.63,4.195 V -3.76 C 5.24,-1.758 2.791,0 0,0" /></g><path
           id="path98"
           style="fill:#727272;fill-opacity:1;fill-rule:nonzero;stroke:none"
           d="M 89.375,16.987 H 86.798 V 5.195 h 2.577 z" /><g
           transform="translate(99.0298,8.6504)"
           id="g100"><path
             id="path102"
             style="fill:#727272;fill-opacity:1;fill-rule:nonzero;stroke:none"
             d="m 0,0 c -0.328,-1.076 -1.521,-1.791 -3.044,-1.791 -1.844,0 -2.985,1.232 -2.985,2.375 0,1.334 1.172,2.377 2.665,2.377 0.489,0 1.155,-0.074 1.555,-0.424 l 0.181,-0.158 c 0,0 -2.574,-1.508 -2.915,-1.709 0.235,-0.233 1.019,-1.008 1.163,-1.149 0.215,0.12 5.073,2.881 5.367,3.049 -0.494,0.78 -1.858,2.262 -5.145,2.262 -3.155,0 -5.446,-1.785 -5.446,-4.248 0,-2.459 2.291,-4.246 5.446,-4.246 2.906,0 5.126,1.351 5.746,3.449 C 2.224,-0.182 0.227,-0.018 0,0" /></g><g
           transform="translate(110.1216,10.1602)"
           id="g104"><path
             id="path106"
             style="fill:#727272;fill-opacity:1;fill-rule:nonzero;stroke:none"
             d="m 0,0 c -0.944,0.346 -1.57,0.574 -1.57,0.979 0,0.556 0.636,0.556 0.905,0.556 H 2.543 V 3.268 H -0.8 c -1.034,0 -3.436,-0.227 -3.436,-2.307 0,-1.107 1.43,-1.662 2.69,-2.15 0.999,-0.385 1.788,-0.692 1.788,-1.249 0,-0.296 -0.262,-0.642 -0.997,-0.642 h -3.596 v -1.734 h 3.914 c 2.171,0 3.575,0.941 3.575,2.392 C 3.138,-1.145 1.323,-0.482 0,0" /></g></g></g></g></svg>