<svg id="Logo_Files" data-name="Logo Files" xmlns="http://www.w3.org/2000/svg" viewBox="0 0 390.02 131.12"><defs><style>.cls-1{fill:#121521;}.cls-2{fill:#139dff;}</style></defs><g id="Logo"><path class="cls-1" d="M0,41.94H27.33L40.85,86h.28l13.52-44H82l-24.41,71H23.09Z"/><path class="cls-1" d="M85.88,41.86l31.23-.13v71.21H85.88Z"/><path class="cls-2" d="M222.51,1.38h31.23V112.94H222.51Z"/><polygon class="cls-1" points="85.88 1.38 121.77 16.59 85.88 31.8 85.88 1.38"/><path class="cls-2" d="M390,113.83,368.36,92.17c4.72-9,6.67-20.64,6.67-34.73C375,18.62,354,0,318.23,0,281,0,261.55,18.62,261.55,57.44c0,40,17.91,57.44,56.68,57.44,13.83,0,24.62-2.07,32.91-6.11l22.34,22.35ZM291.31,57.44c0-17.68,10.38-27.72,26.92-27.72s27.09,10,26.92,27.72C345,76.52,334.53,85,318.23,85.17,301.58,85.39,291.31,75.12,291.31,57.44Z"/><path class="cls-1" d="M183.5,1.38v46.3h-.45c-5-6-13.11-8.27-23.4-8.27-23.27,0-36.47,14.28-36.47,38.11,0,24.35,11.43,37.81,37,37.81,9.77,0,20.29-3,24.39-9.31h.31v6.92H210.8V1.38ZM165.8,91.64c-7.67.12-12.4-5.17-12.4-14.27s4.78-14.26,12.4-14.26,12.48,5.17,12.4,14.26C178.12,87.19,173.31,91.53,165.8,91.64Z"/></g></svg>